# xmcd
#
# Track frame offsets:
#	150
#	24647
#	47884
#	61653
#	95443
#	108880
#	130768
#	154996
#	174264
#	196144
#	207975
#	236353
#
# Disc length: 3413 seconds
#
# Revision: 1
# Processed by: cddbd v1.5.2PL0 Copyright (c) Steve Scherf et al.
# Submitted via: audiograbber 1.83.01
#
DISCID=950d530c
DTITLE=The Borderlines - Imagine
DYEAR=1900
DGENRE=Soul
TTITLE0=Eire
TTITLE1=Free Fallin'
TTITLE2=Everyday
TTITLE3=Hallelujah
TTITLE4=You're the Sunshine
TTITLE5=Fields of Gold
TTITLE6=I shall be released
TTITLE7=I'll die
TTITLE8=Jolene
TTITLE9=This little Light of mine
TTITLE10=One
TTITLE11=Imagine
EXTD=
EXTT0=
EXTT1=
EXTT2=
EXTT3=
EXTT4=
EXTT5=
EXTT6=
EXTT7=
EXTT8=
EXTT9=
EXTT10=
EXTT11=
PLAYORDER=
